M48
; DRILL file KiCad 10.0.0 date 2026-07-27T11:44:23
; FORMAT={-:-/ absolute / metric / decimal}
; #@! TF.CreationDate,2026-07-27T11:44:23-05:00
; #@! TF.GenerationSoftware,Kicad,Pcbnew,10.0.0
; #@! TF.FileFunction,Plated,1,2,PTH
FMAT,2
METRIC
; #@! TA.AperFunction,Plated,PTH,ComponentDrill
T1C0.790
; #@! TA.AperFunction,Plated,PTH,ComponentDrill
T2C0.800
; #@! TA.AperFunction,Plated,PTH,ComponentDrill
T3C0.840
; #@! TA.AperFunction,Plated,PTH,ComponentDrill
T4C1.000
; #@! TA.AperFunction,Plated,PTH,ComponentDrill
T5C1.100
; #@! TA.AperFunction,Plated,PTH,ComponentDrill
T6C1.270
%
G90
G05
T1
X225.14Y-40.42
X225.14Y-42.96
X225.14Y-45.5
T2
X208.02Y-33.88
X215.64Y-33.88
T3
X177.76Y-33.76
X177.76Y-49.0
X180.3Y-33.76
X180.3Y-49.0
X182.84Y-33.76
X182.84Y-49.0
X185.38Y-33.76
X185.38Y-49.0
X187.92Y-33.76
X187.92Y-49.0
X190.46Y-33.76
X190.46Y-49.0
X193.0Y-33.76
X193.0Y-49.0
X195.54Y-33.76
X195.54Y-49.0
T4
X211.5Y-64.0
X211.75Y-77.0
X235.5Y-64.0
X236.0Y-76.5
X244.0Y-69.23
X244.0Y-71.77
X245.14Y-51.11
X245.14Y-53.65
X245.64Y-35.96
X245.64Y-38.5
X252.0Y-64.0
X252.0Y-77.5
T5
X237.64Y-32.88
X237.64Y-43.04
X237.64Y-47.3
X237.64Y-57.46
T6
X177.11Y-63.17
X179.65Y-63.17
X182.19Y-63.17
X184.73Y-63.17
X187.27Y-63.17
X189.81Y-63.17
X192.35Y-63.17
X194.89Y-63.17
M30
