%TF.GenerationSoftware,KiCad,Pcbnew,10.0.0*%
%TF.CreationDate,2026-07-27T11:43:12-05:00*%
%TF.ProjectId,pcb_postura,7063625f-706f-4737-9475-72612e6b6963,rev?*%
%TF.SameCoordinates,Original*%
%TF.FileFunction,Copper,L1,Top*%
%TF.FilePolarity,Positive*%
%FSLAX46Y46*%
G04 Gerber Fmt 4.6, Leading zero omitted, Abs format (unit mm)*
G04 Created by KiCad (PCBNEW 10.0.0) date 2026-07-27 11:43:12*
%MOMM*%
%LPD*%
G01*
G04 APERTURE LIST*
G04 Aperture macros list*
%AMRoundRect*
0 Rectangle with rounded corners*
0 $1 Rounding radius*
0 $2 $3 $4 $5 $6 $7 $8 $9 X,Y pos of 4 corners*
0 Add a 4 corners polygon primitive as box body*
4,1,4,$2,$3,$4,$5,$6,$7,$8,$9,$2,$3,0*
0 Add four circle primitives for the rounded corners*
1,1,$1+$1,$2,$3*
1,1,$1+$1,$4,$5*
1,1,$1+$1,$6,$7*
1,1,$1+$1,$8,$9*
0 Add four rect primitives between the rounded corners*
20,1,$1+$1,$2,$3,$4,$5,0*
20,1,$1+$1,$4,$5,$6,$7,0*
20,1,$1+$1,$6,$7,$8,$9,0*
20,1,$1+$1,$8,$9,$2,$3,0*%
G04 Aperture macros list end*
%TA.AperFunction,ComponentPad*%
%ADD10R,1.700000X1.700000*%
%TD*%
%TA.AperFunction,ComponentPad*%
%ADD11RoundRect,0.249999X0.850001X-0.850001X0.850001X0.850001X-0.850001X0.850001X-0.850001X-0.850001X0*%
%TD*%
%TA.AperFunction,ComponentPad*%
%ADD12C,2.200000*%
%TD*%
%TA.AperFunction,ComponentPad*%
%ADD13C,1.700000*%
%TD*%
%TA.AperFunction,ComponentPad*%
%ADD14RoundRect,0.249999X-0.850001X0.850001X-0.850001X-0.850001X0.850001X-0.850001X0.850001X0.850001X0*%
%TD*%
%TA.AperFunction,ComponentPad*%
%ADD15C,1.348000*%
%TD*%
%TA.AperFunction,ComponentPad*%
%ADD16C,1.905000*%
%TD*%
%TA.AperFunction,ComponentPad*%
%ADD17C,1.600000*%
%TD*%
%TA.AperFunction,ComponentPad*%
%ADD18R,1.298000X1.298000*%
%TD*%
%TA.AperFunction,ComponentPad*%
%ADD19C,1.298000*%
%TD*%
G04 APERTURE END LIST*
D10*
%TO.P,vin-1,1,Pin_1_1*%
%TO.N,GND*%
X235500000Y-64000000D03*
%TD*%
%TO.P,out-1,1,Pin_1_1*%
%TO.N,GND*%
X211500000Y-64000000D03*
%TD*%
%TO.P,bat+1,1,Pin_1_1*%
%TO.N,VCC*%
X252000000Y-77500000D03*
%TD*%
%TO.P,vin+1,1,Pin_1_1*%
%TO.N,VCC*%
X236000000Y-76500000D03*
%TD*%
%TO.P,out+1,1,Pin_1_1*%
%TO.N,+5V*%
X211750000Y-77000000D03*
%TD*%
D11*
%TO.P,motor2,1,K_1*%
%TO.N,+5V*%
X237640000Y-57460000D03*
D12*
%TO.P,motor2,2,A_2*%
%TO.N,Net-(motor0-A)*%
X237640000Y-47300000D03*
%TD*%
D10*
%TO.P,al,1,Pin_1_1*%
%TO.N,VCC*%
X244000000Y-71770000D03*
D13*
%TO.P,al,2,Pin_2_2*%
%TO.N,GND*%
X244000000Y-69230000D03*
%TD*%
D14*
%TO.P,motor0,1,K_1*%
%TO.N,+5V*%
X237640000Y-32880000D03*
D12*
%TO.P,motor0,2,A_2*%
%TO.N,Net-(motor0-A)*%
X237640000Y-43040000D03*
%TD*%
D10*
%TO.P,bat-1,1,Pin_1_1*%
%TO.N,GND*%
X252000000Y-64000000D03*
%TD*%
D15*
%TO.P,U1,0,GPIO0_0*%
%TO.N,Net-(U1-GPIO0)*%
X177760000Y-49000000D03*
%TO.P,U1,1,GPIO1_1*%
%TO.N,Net-(U1-GPIO1)*%
X180300000Y-49000000D03*
%TO.P,U1,2,GPIO2_2*%
%TO.N,unconnected-(U1-GPIO2-Pad2)*%
X182840000Y-49000000D03*
%TO.P,U1,3,GPIO3_3*%
%TO.N,unconnected-(U1-GPIO3-Pad3)*%
X185380000Y-49000000D03*
%TO.P,U1,3.3,3V3_3.3*%
%TO.N,unconnected-(U1-3V3-Pad3.3)*%
X190460000Y-49000000D03*
%TO.P,U1,4,GPIO4_4*%
%TO.N,unconnected-(U1-GPIO4-Pad4)*%
X187920000Y-49000000D03*
%TO.P,U1,5,GPIO5_5*%
%TO.N,unconnected-(U1-GPIO5-Pad5)*%
X195540000Y-33760000D03*
%TO.P,U1,5V,5V_5V*%
%TO.N,+5V*%
X195540000Y-49000000D03*
%TO.P,U1,6,GPIO6_6*%
%TO.N,unconnected-(U1-GPIO6-Pad6)*%
X193000000Y-33760000D03*
%TO.P,U1,7,GPIO7_7*%
%TO.N,unconnected-(U1-GPIO7-Pad7)*%
X190460000Y-33760000D03*
%TO.P,U1,8,GPIO8_8*%
%TO.N,unconnected-(U1-GPIO8-Pad8)*%
X187920000Y-33760000D03*
%TO.P,U1,9,GPIO9_9*%
%TO.N,unconnected-(U1-GPIO9-Pad9)*%
X185380000Y-33760000D03*
%TO.P,U1,10,GPIO10_10*%
%TO.N,Net-(U1-GPIO10)*%
X182840000Y-33760000D03*
%TO.P,U1,20,GPIO20_20*%
%TO.N,unconnected-(U1-GPIO20-Pad20)*%
X180300000Y-33760000D03*
%TO.P,U1,21,GPIO21_21*%
%TO.N,unconnected-(U1-GPIO21-Pad21)*%
X177760000Y-33760000D03*
%TO.P,U1,G,GND_G*%
%TO.N,GND*%
X193000000Y-49000000D03*
%TD*%
D16*
%TO.P,U2,AD0,AD0_AD0*%
%TO.N,unconnected-(U2-PadAD0)*%
X179650000Y-63170000D03*
%TO.P,U2,GND,GND_GND*%
%TO.N,GND*%
X192350000Y-63170000D03*
%TO.P,U2,INT,INT_INT*%
%TO.N,unconnected-(U2-PadINT)*%
X177110000Y-63170000D03*
%TO.P,U2,SCL,SCL_SCL*%
%TO.N,Net-(U1-GPIO1)*%
X189810000Y-63170000D03*
%TO.P,U2,SDA,SDA_SDA*%
%TO.N,Net-(U1-GPIO0)*%
X187270000Y-63170000D03*
%TO.P,U2,VCC,VCC_VCC*%
%TO.N,+5V*%
X194890000Y-63170000D03*
%TO.P,U2,XCL,XCL_XCL*%
%TO.N,unconnected-(U2-PadXCL)*%
X182190000Y-63170000D03*
%TO.P,U2,XDA,XDA_XDA*%
%TO.N,unconnected-(U2-PadXDA)*%
X184730000Y-63170000D03*
%TD*%
D10*
%TO.P,motor3,1,Pin_1_1*%
%TO.N,+5V*%
X245140000Y-53650000D03*
D13*
%TO.P,motor3,2,Pin_2_2*%
%TO.N,Net-(motor0-A)*%
X245140000Y-51110000D03*
%TD*%
D10*
%TO.P,motor1,1,Pin_1_1*%
%TO.N,+5V*%
X245640000Y-35960000D03*
D13*
%TO.P,motor1,2,Pin_2_2*%
%TO.N,Net-(motor0-A)*%
X245640000Y-38500000D03*
%TD*%
D17*
%TO.P,R1k1,1*%
%TO.N,Net-(U1-GPIO10)*%
X208020000Y-33880000D03*
%TO.P,R1k1,2*%
%TO.N,Net-(R1k1-Pad2)*%
X215640000Y-33880000D03*
%TD*%
D18*
%TO.P,q1,1*%
%TO.N,GND*%
X225140000Y-45500000D03*
D19*
%TO.P,q1,2*%
%TO.N,Net-(R1k1-Pad2)*%
X225140000Y-42960000D03*
%TO.P,q1,3*%
%TO.N,Net-(motor0-A)*%
X225140000Y-40420000D03*
%TD*%
M02*
