%TF.GenerationSoftware,KiCad,Pcbnew,10.0.0*%
%TF.CreationDate,2026-07-27T11:43:12-05:00*%
%TF.ProjectId,pcb_postura,7063625f-706f-4737-9475-72612e6b6963,rev?*%
%TF.SameCoordinates,Original*%
%TF.FileFunction,Legend,Top*%
%TF.FilePolarity,Positive*%
%FSLAX46Y46*%
G04 Gerber Fmt 4.6, Leading zero omitted, Abs format (unit mm)*
G04 Created by KiCad (PCBNEW 10.0.0) date 2026-07-27 11:43:12*
%MOMM*%
%LPD*%
G01*
G04 APERTURE LIST*
%ADD10C,0.150000*%
%ADD11C,0.120000*%
%ADD12C,0.127000*%
%ADD13C,0.200000*%
G04 APERTURE END LIST*
D10*
X232518152Y-66023808D02*
X233184819Y-65785713D01*
X233184819Y-65785713D02*
X232518152Y-65547618D01*
X233184819Y-65166665D02*
X232518152Y-65166665D01*
X232184819Y-65166665D02*
X232232438Y-65214284D01*
X232232438Y-65214284D02*
X232280057Y-65166665D01*
X232280057Y-65166665D02*
X232232438Y-65119046D01*
X232232438Y-65119046D02*
X232184819Y-65166665D01*
X232184819Y-65166665D02*
X232280057Y-65166665D01*
X232518152Y-64690475D02*
X233184819Y-64690475D01*
X232613390Y-64690475D02*
X232565771Y-64642856D01*
X232565771Y-64642856D02*
X232518152Y-64547618D01*
X232518152Y-64547618D02*
X232518152Y-64404761D01*
X232518152Y-64404761D02*
X232565771Y-64309523D01*
X232565771Y-64309523D02*
X232661009Y-64261904D01*
X232661009Y-64261904D02*
X233184819Y-64261904D01*
X232803866Y-63785713D02*
X232803866Y-63023809D01*
X233184819Y-62023809D02*
X233184819Y-62595237D01*
X233184819Y-62309523D02*
X232184819Y-62309523D01*
X232184819Y-62309523D02*
X232327676Y-62404761D01*
X232327676Y-62404761D02*
X232422914Y-62499999D01*
X232422914Y-62499999D02*
X232470533Y-62595237D01*
X209595238Y-67224819D02*
X209500000Y-67177200D01*
X209500000Y-67177200D02*
X209452381Y-67129580D01*
X209452381Y-67129580D02*
X209404762Y-67034342D01*
X209404762Y-67034342D02*
X209404762Y-66748628D01*
X209404762Y-66748628D02*
X209452381Y-66653390D01*
X209452381Y-66653390D02*
X209500000Y-66605771D01*
X209500000Y-66605771D02*
X209595238Y-66558152D01*
X209595238Y-66558152D02*
X209738095Y-66558152D01*
X209738095Y-66558152D02*
X209833333Y-66605771D01*
X209833333Y-66605771D02*
X209880952Y-66653390D01*
X209880952Y-66653390D02*
X209928571Y-66748628D01*
X209928571Y-66748628D02*
X209928571Y-67034342D01*
X209928571Y-67034342D02*
X209880952Y-67129580D01*
X209880952Y-67129580D02*
X209833333Y-67177200D01*
X209833333Y-67177200D02*
X209738095Y-67224819D01*
X209738095Y-67224819D02*
X209595238Y-67224819D01*
X210785714Y-66558152D02*
X210785714Y-67224819D01*
X210357143Y-66558152D02*
X210357143Y-67081961D01*
X210357143Y-67081961D02*
X210404762Y-67177200D01*
X210404762Y-67177200D02*
X210500000Y-67224819D01*
X210500000Y-67224819D02*
X210642857Y-67224819D01*
X210642857Y-67224819D02*
X210738095Y-67177200D01*
X210738095Y-67177200D02*
X210785714Y-67129580D01*
X211119048Y-66558152D02*
X211500000Y-66558152D01*
X211261905Y-66224819D02*
X211261905Y-67081961D01*
X211261905Y-67081961D02*
X211309524Y-67177200D01*
X211309524Y-67177200D02*
X211404762Y-67224819D01*
X211404762Y-67224819D02*
X211500000Y-67224819D01*
X211833334Y-66843866D02*
X212595239Y-66843866D01*
X213595238Y-67224819D02*
X213023810Y-67224819D01*
X213309524Y-67224819D02*
X213309524Y-66224819D01*
X213309524Y-66224819D02*
X213214286Y-66367676D01*
X213214286Y-66367676D02*
X213119048Y-66462914D01*
X213119048Y-66462914D02*
X213023810Y-66510533D01*
X249952381Y-75184819D02*
X249952381Y-74184819D01*
X249952381Y-74565771D02*
X250047619Y-74518152D01*
X250047619Y-74518152D02*
X250238095Y-74518152D01*
X250238095Y-74518152D02*
X250333333Y-74565771D01*
X250333333Y-74565771D02*
X250380952Y-74613390D01*
X250380952Y-74613390D02*
X250428571Y-74708628D01*
X250428571Y-74708628D02*
X250428571Y-74994342D01*
X250428571Y-74994342D02*
X250380952Y-75089580D01*
X250380952Y-75089580D02*
X250333333Y-75137200D01*
X250333333Y-75137200D02*
X250238095Y-75184819D01*
X250238095Y-75184819D02*
X250047619Y-75184819D01*
X250047619Y-75184819D02*
X249952381Y-75137200D01*
X251285714Y-75184819D02*
X251285714Y-74661009D01*
X251285714Y-74661009D02*
X251238095Y-74565771D01*
X251238095Y-74565771D02*
X251142857Y-74518152D01*
X251142857Y-74518152D02*
X250952381Y-74518152D01*
X250952381Y-74518152D02*
X250857143Y-74565771D01*
X251285714Y-75137200D02*
X251190476Y-75184819D01*
X251190476Y-75184819D02*
X250952381Y-75184819D01*
X250952381Y-75184819D02*
X250857143Y-75137200D01*
X250857143Y-75137200D02*
X250809524Y-75041961D01*
X250809524Y-75041961D02*
X250809524Y-74946723D01*
X250809524Y-74946723D02*
X250857143Y-74851485D01*
X250857143Y-74851485D02*
X250952381Y-74803866D01*
X250952381Y-74803866D02*
X251190476Y-74803866D01*
X251190476Y-74803866D02*
X251285714Y-74756247D01*
X251619048Y-74518152D02*
X252000000Y-74518152D01*
X251761905Y-74184819D02*
X251761905Y-75041961D01*
X251761905Y-75041961D02*
X251809524Y-75137200D01*
X251809524Y-75137200D02*
X251904762Y-75184819D01*
X251904762Y-75184819D02*
X252000000Y-75184819D01*
X252333334Y-74803866D02*
X253095239Y-74803866D01*
X252714286Y-75184819D02*
X252714286Y-74422914D01*
X254095238Y-75184819D02*
X253523810Y-75184819D01*
X253809524Y-75184819D02*
X253809524Y-74184819D01*
X253809524Y-74184819D02*
X253714286Y-74327676D01*
X253714286Y-74327676D02*
X253619048Y-74422914D01*
X253619048Y-74422914D02*
X253523810Y-74470533D01*
X233018152Y-78523808D02*
X233684819Y-78285713D01*
X233684819Y-78285713D02*
X233018152Y-78047618D01*
X233684819Y-77666665D02*
X233018152Y-77666665D01*
X232684819Y-77666665D02*
X232732438Y-77714284D01*
X232732438Y-77714284D02*
X232780057Y-77666665D01*
X232780057Y-77666665D02*
X232732438Y-77619046D01*
X232732438Y-77619046D02*
X232684819Y-77666665D01*
X232684819Y-77666665D02*
X232780057Y-77666665D01*
X233018152Y-77190475D02*
X233684819Y-77190475D01*
X233113390Y-77190475D02*
X233065771Y-77142856D01*
X233065771Y-77142856D02*
X233018152Y-77047618D01*
X233018152Y-77047618D02*
X233018152Y-76904761D01*
X233018152Y-76904761D02*
X233065771Y-76809523D01*
X233065771Y-76809523D02*
X233161009Y-76761904D01*
X233161009Y-76761904D02*
X233684819Y-76761904D01*
X233303866Y-76285713D02*
X233303866Y-75523809D01*
X233684819Y-75904761D02*
X232922914Y-75904761D01*
X233684819Y-74523809D02*
X233684819Y-75095237D01*
X233684819Y-74809523D02*
X232684819Y-74809523D01*
X232684819Y-74809523D02*
X232827676Y-74904761D01*
X232827676Y-74904761D02*
X232922914Y-74999999D01*
X232922914Y-74999999D02*
X232970533Y-75095237D01*
X215454819Y-77904761D02*
X215407200Y-77999999D01*
X215407200Y-77999999D02*
X215359580Y-78047618D01*
X215359580Y-78047618D02*
X215264342Y-78095237D01*
X215264342Y-78095237D02*
X214978628Y-78095237D01*
X214978628Y-78095237D02*
X214883390Y-78047618D01*
X214883390Y-78047618D02*
X214835771Y-77999999D01*
X214835771Y-77999999D02*
X214788152Y-77904761D01*
X214788152Y-77904761D02*
X214788152Y-77761904D01*
X214788152Y-77761904D02*
X214835771Y-77666666D01*
X214835771Y-77666666D02*
X214883390Y-77619047D01*
X214883390Y-77619047D02*
X214978628Y-77571428D01*
X214978628Y-77571428D02*
X215264342Y-77571428D01*
X215264342Y-77571428D02*
X215359580Y-77619047D01*
X215359580Y-77619047D02*
X215407200Y-77666666D01*
X215407200Y-77666666D02*
X215454819Y-77761904D01*
X215454819Y-77761904D02*
X215454819Y-77904761D01*
X214788152Y-76714285D02*
X215454819Y-76714285D01*
X214788152Y-77142856D02*
X215311961Y-77142856D01*
X215311961Y-77142856D02*
X215407200Y-77095237D01*
X215407200Y-77095237D02*
X215454819Y-76999999D01*
X215454819Y-76999999D02*
X215454819Y-76857142D01*
X215454819Y-76857142D02*
X215407200Y-76761904D01*
X215407200Y-76761904D02*
X215359580Y-76714285D01*
X214788152Y-76380951D02*
X214788152Y-75999999D01*
X214454819Y-76238094D02*
X215311961Y-76238094D01*
X215311961Y-76238094D02*
X215407200Y-76190475D01*
X215407200Y-76190475D02*
X215454819Y-76095237D01*
X215454819Y-76095237D02*
X215454819Y-75999999D01*
X215073866Y-75666665D02*
X215073866Y-74904761D01*
X215454819Y-75285713D02*
X214692914Y-75285713D01*
X215454819Y-73904761D02*
X215454819Y-74476189D01*
X215454819Y-74190475D02*
X214454819Y-74190475D01*
X214454819Y-74190475D02*
X214597676Y-74285713D01*
X214597676Y-74285713D02*
X214692914Y-74380951D01*
X214692914Y-74380951D02*
X214740533Y-74476189D01*
X235624819Y-54784761D02*
X234958152Y-54784761D01*
X235053390Y-54784761D02*
X235005771Y-54737142D01*
X235005771Y-54737142D02*
X234958152Y-54641904D01*
X234958152Y-54641904D02*
X234958152Y-54499047D01*
X234958152Y-54499047D02*
X235005771Y-54403809D01*
X235005771Y-54403809D02*
X235101009Y-54356190D01*
X235101009Y-54356190D02*
X235624819Y-54356190D01*
X235101009Y-54356190D02*
X235005771Y-54308571D01*
X235005771Y-54308571D02*
X234958152Y-54213333D01*
X234958152Y-54213333D02*
X234958152Y-54070476D01*
X234958152Y-54070476D02*
X235005771Y-53975237D01*
X235005771Y-53975237D02*
X235101009Y-53927618D01*
X235101009Y-53927618D02*
X235624819Y-53927618D01*
X235624819Y-53308571D02*
X235577200Y-53403809D01*
X235577200Y-53403809D02*
X235529580Y-53451428D01*
X235529580Y-53451428D02*
X235434342Y-53499047D01*
X235434342Y-53499047D02*
X235148628Y-53499047D01*
X235148628Y-53499047D02*
X235053390Y-53451428D01*
X235053390Y-53451428D02*
X235005771Y-53403809D01*
X235005771Y-53403809D02*
X234958152Y-53308571D01*
X234958152Y-53308571D02*
X234958152Y-53165714D01*
X234958152Y-53165714D02*
X235005771Y-53070476D01*
X235005771Y-53070476D02*
X235053390Y-53022857D01*
X235053390Y-53022857D02*
X235148628Y-52975238D01*
X235148628Y-52975238D02*
X235434342Y-52975238D01*
X235434342Y-52975238D02*
X235529580Y-53022857D01*
X235529580Y-53022857D02*
X235577200Y-53070476D01*
X235577200Y-53070476D02*
X235624819Y-53165714D01*
X235624819Y-53165714D02*
X235624819Y-53308571D01*
X234958152Y-52689523D02*
X234958152Y-52308571D01*
X234624819Y-52546666D02*
X235481961Y-52546666D01*
X235481961Y-52546666D02*
X235577200Y-52499047D01*
X235577200Y-52499047D02*
X235624819Y-52403809D01*
X235624819Y-52403809D02*
X235624819Y-52308571D01*
X235624819Y-51832380D02*
X235577200Y-51927618D01*
X235577200Y-51927618D02*
X235529580Y-51975237D01*
X235529580Y-51975237D02*
X235434342Y-52022856D01*
X235434342Y-52022856D02*
X235148628Y-52022856D01*
X235148628Y-52022856D02*
X235053390Y-51975237D01*
X235053390Y-51975237D02*
X235005771Y-51927618D01*
X235005771Y-51927618D02*
X234958152Y-51832380D01*
X234958152Y-51832380D02*
X234958152Y-51689523D01*
X234958152Y-51689523D02*
X235005771Y-51594285D01*
X235005771Y-51594285D02*
X235053390Y-51546666D01*
X235053390Y-51546666D02*
X235148628Y-51499047D01*
X235148628Y-51499047D02*
X235434342Y-51499047D01*
X235434342Y-51499047D02*
X235529580Y-51546666D01*
X235529580Y-51546666D02*
X235577200Y-51594285D01*
X235577200Y-51594285D02*
X235624819Y-51689523D01*
X235624819Y-51689523D02*
X235624819Y-51832380D01*
X235624819Y-51070475D02*
X234958152Y-51070475D01*
X235148628Y-51070475D02*
X235053390Y-51022856D01*
X235053390Y-51022856D02*
X235005771Y-50975237D01*
X235005771Y-50975237D02*
X234958152Y-50879999D01*
X234958152Y-50879999D02*
X234958152Y-50784761D01*
X234720057Y-50499046D02*
X234672438Y-50451427D01*
X234672438Y-50451427D02*
X234624819Y-50356189D01*
X234624819Y-50356189D02*
X234624819Y-50118094D01*
X234624819Y-50118094D02*
X234672438Y-50022856D01*
X234672438Y-50022856D02*
X234720057Y-49975237D01*
X234720057Y-49975237D02*
X234815295Y-49927618D01*
X234815295Y-49927618D02*
X234910533Y-49927618D01*
X234910533Y-49927618D02*
X235053390Y-49975237D01*
X235053390Y-49975237D02*
X235624819Y-50546665D01*
X235624819Y-50546665D02*
X235624819Y-49927618D01*
X235994819Y-57721904D02*
X234994819Y-57721904D01*
X235994819Y-57150476D02*
X235423390Y-57579047D01*
X234994819Y-57150476D02*
X235566247Y-57721904D01*
X243952380Y-74994819D02*
X243952380Y-74471009D01*
X243952380Y-74471009D02*
X243904761Y-74375771D01*
X243904761Y-74375771D02*
X243809523Y-74328152D01*
X243809523Y-74328152D02*
X243619047Y-74328152D01*
X243619047Y-74328152D02*
X243523809Y-74375771D01*
X243952380Y-74947200D02*
X243857142Y-74994819D01*
X243857142Y-74994819D02*
X243619047Y-74994819D01*
X243619047Y-74994819D02*
X243523809Y-74947200D01*
X243523809Y-74947200D02*
X243476190Y-74851961D01*
X243476190Y-74851961D02*
X243476190Y-74756723D01*
X243476190Y-74756723D02*
X243523809Y-74661485D01*
X243523809Y-74661485D02*
X243619047Y-74613866D01*
X243619047Y-74613866D02*
X243857142Y-74613866D01*
X243857142Y-74613866D02*
X243952380Y-74566247D01*
X244571428Y-74994819D02*
X244476190Y-74947200D01*
X244476190Y-74947200D02*
X244428571Y-74851961D01*
X244428571Y-74851961D02*
X244428571Y-73994819D01*
X233454819Y-37404761D02*
X232788152Y-37404761D01*
X232883390Y-37404761D02*
X232835771Y-37357142D01*
X232835771Y-37357142D02*
X232788152Y-37261904D01*
X232788152Y-37261904D02*
X232788152Y-37119047D01*
X232788152Y-37119047D02*
X232835771Y-37023809D01*
X232835771Y-37023809D02*
X232931009Y-36976190D01*
X232931009Y-36976190D02*
X233454819Y-36976190D01*
X232931009Y-36976190D02*
X232835771Y-36928571D01*
X232835771Y-36928571D02*
X232788152Y-36833333D01*
X232788152Y-36833333D02*
X232788152Y-36690476D01*
X232788152Y-36690476D02*
X232835771Y-36595237D01*
X232835771Y-36595237D02*
X232931009Y-36547618D01*
X232931009Y-36547618D02*
X233454819Y-36547618D01*
X233454819Y-35928571D02*
X233407200Y-36023809D01*
X233407200Y-36023809D02*
X233359580Y-36071428D01*
X233359580Y-36071428D02*
X233264342Y-36119047D01*
X233264342Y-36119047D02*
X232978628Y-36119047D01*
X232978628Y-36119047D02*
X232883390Y-36071428D01*
X232883390Y-36071428D02*
X232835771Y-36023809D01*
X232835771Y-36023809D02*
X232788152Y-35928571D01*
X232788152Y-35928571D02*
X232788152Y-35785714D01*
X232788152Y-35785714D02*
X232835771Y-35690476D01*
X232835771Y-35690476D02*
X232883390Y-35642857D01*
X232883390Y-35642857D02*
X232978628Y-35595238D01*
X232978628Y-35595238D02*
X233264342Y-35595238D01*
X233264342Y-35595238D02*
X233359580Y-35642857D01*
X233359580Y-35642857D02*
X233407200Y-35690476D01*
X233407200Y-35690476D02*
X233454819Y-35785714D01*
X233454819Y-35785714D02*
X233454819Y-35928571D01*
X232788152Y-35309523D02*
X232788152Y-34928571D01*
X232454819Y-35166666D02*
X233311961Y-35166666D01*
X233311961Y-35166666D02*
X233407200Y-35119047D01*
X233407200Y-35119047D02*
X233454819Y-35023809D01*
X233454819Y-35023809D02*
X233454819Y-34928571D01*
X233454819Y-34452380D02*
X233407200Y-34547618D01*
X233407200Y-34547618D02*
X233359580Y-34595237D01*
X233359580Y-34595237D02*
X233264342Y-34642856D01*
X233264342Y-34642856D02*
X232978628Y-34642856D01*
X232978628Y-34642856D02*
X232883390Y-34595237D01*
X232883390Y-34595237D02*
X232835771Y-34547618D01*
X232835771Y-34547618D02*
X232788152Y-34452380D01*
X232788152Y-34452380D02*
X232788152Y-34309523D01*
X232788152Y-34309523D02*
X232835771Y-34214285D01*
X232835771Y-34214285D02*
X232883390Y-34166666D01*
X232883390Y-34166666D02*
X232978628Y-34119047D01*
X232978628Y-34119047D02*
X233264342Y-34119047D01*
X233264342Y-34119047D02*
X233359580Y-34166666D01*
X233359580Y-34166666D02*
X233407200Y-34214285D01*
X233407200Y-34214285D02*
X233454819Y-34309523D01*
X233454819Y-34309523D02*
X233454819Y-34452380D01*
X233454819Y-33690475D02*
X232788152Y-33690475D01*
X232978628Y-33690475D02*
X232883390Y-33642856D01*
X232883390Y-33642856D02*
X232835771Y-33595237D01*
X232835771Y-33595237D02*
X232788152Y-33499999D01*
X232788152Y-33499999D02*
X232788152Y-33404761D01*
X232454819Y-32880951D02*
X232454819Y-32785713D01*
X232454819Y-32785713D02*
X232502438Y-32690475D01*
X232502438Y-32690475D02*
X232550057Y-32642856D01*
X232550057Y-32642856D02*
X232645295Y-32595237D01*
X232645295Y-32595237D02*
X232835771Y-32547618D01*
X232835771Y-32547618D02*
X233073866Y-32547618D01*
X233073866Y-32547618D02*
X233264342Y-32595237D01*
X233264342Y-32595237D02*
X233359580Y-32642856D01*
X233359580Y-32642856D02*
X233407200Y-32690475D01*
X233407200Y-32690475D02*
X233454819Y-32785713D01*
X233454819Y-32785713D02*
X233454819Y-32880951D01*
X233454819Y-32880951D02*
X233407200Y-32976189D01*
X233407200Y-32976189D02*
X233359580Y-33023808D01*
X233359580Y-33023808D02*
X233264342Y-33071427D01*
X233264342Y-33071427D02*
X233073866Y-33119046D01*
X233073866Y-33119046D02*
X232835771Y-33119046D01*
X232835771Y-33119046D02*
X232645295Y-33071427D01*
X232645295Y-33071427D02*
X232550057Y-33023808D01*
X232550057Y-33023808D02*
X232502438Y-32976189D01*
X232502438Y-32976189D02*
X232454819Y-32880951D01*
X240194819Y-33141904D02*
X239194819Y-33141904D01*
X240194819Y-32570476D02*
X239623390Y-32999047D01*
X239194819Y-32570476D02*
X239766247Y-33141904D01*
X249952381Y-61684819D02*
X249952381Y-60684819D01*
X249952381Y-61065771D02*
X250047619Y-61018152D01*
X250047619Y-61018152D02*
X250238095Y-61018152D01*
X250238095Y-61018152D02*
X250333333Y-61065771D01*
X250333333Y-61065771D02*
X250380952Y-61113390D01*
X250380952Y-61113390D02*
X250428571Y-61208628D01*
X250428571Y-61208628D02*
X250428571Y-61494342D01*
X250428571Y-61494342D02*
X250380952Y-61589580D01*
X250380952Y-61589580D02*
X250333333Y-61637200D01*
X250333333Y-61637200D02*
X250238095Y-61684819D01*
X250238095Y-61684819D02*
X250047619Y-61684819D01*
X250047619Y-61684819D02*
X249952381Y-61637200D01*
X251285714Y-61684819D02*
X251285714Y-61161009D01*
X251285714Y-61161009D02*
X251238095Y-61065771D01*
X251238095Y-61065771D02*
X251142857Y-61018152D01*
X251142857Y-61018152D02*
X250952381Y-61018152D01*
X250952381Y-61018152D02*
X250857143Y-61065771D01*
X251285714Y-61637200D02*
X251190476Y-61684819D01*
X251190476Y-61684819D02*
X250952381Y-61684819D01*
X250952381Y-61684819D02*
X250857143Y-61637200D01*
X250857143Y-61637200D02*
X250809524Y-61541961D01*
X250809524Y-61541961D02*
X250809524Y-61446723D01*
X250809524Y-61446723D02*
X250857143Y-61351485D01*
X250857143Y-61351485D02*
X250952381Y-61303866D01*
X250952381Y-61303866D02*
X251190476Y-61303866D01*
X251190476Y-61303866D02*
X251285714Y-61256247D01*
X251619048Y-61018152D02*
X252000000Y-61018152D01*
X251761905Y-60684819D02*
X251761905Y-61541961D01*
X251761905Y-61541961D02*
X251809524Y-61637200D01*
X251809524Y-61637200D02*
X251904762Y-61684819D01*
X251904762Y-61684819D02*
X252000000Y-61684819D01*
X252333334Y-61303866D02*
X253095239Y-61303866D01*
X254095238Y-61684819D02*
X253523810Y-61684819D01*
X253809524Y-61684819D02*
X253809524Y-60684819D01*
X253809524Y-60684819D02*
X253714286Y-60827676D01*
X253714286Y-60827676D02*
X253619048Y-60922914D01*
X253619048Y-60922914D02*
X253523810Y-60970533D01*
X198747319Y-36426904D02*
X199556842Y-36426904D01*
X199556842Y-36426904D02*
X199652080Y-36379285D01*
X199652080Y-36379285D02*
X199699700Y-36331666D01*
X199699700Y-36331666D02*
X199747319Y-36236428D01*
X199747319Y-36236428D02*
X199747319Y-36045952D01*
X199747319Y-36045952D02*
X199699700Y-35950714D01*
X199699700Y-35950714D02*
X199652080Y-35903095D01*
X199652080Y-35903095D02*
X199556842Y-35855476D01*
X199556842Y-35855476D02*
X198747319Y-35855476D01*
X199747319Y-34855476D02*
X199747319Y-35426904D01*
X199747319Y-35141190D02*
X198747319Y-35141190D01*
X198747319Y-35141190D02*
X198890176Y-35236428D01*
X198890176Y-35236428D02*
X198985414Y-35331666D01*
X198985414Y-35331666D02*
X199033033Y-35426904D01*
X197489819Y-63261904D02*
X198299342Y-63261904D01*
X198299342Y-63261904D02*
X198394580Y-63214285D01*
X198394580Y-63214285D02*
X198442200Y-63166666D01*
X198442200Y-63166666D02*
X198489819Y-63071428D01*
X198489819Y-63071428D02*
X198489819Y-62880952D01*
X198489819Y-62880952D02*
X198442200Y-62785714D01*
X198442200Y-62785714D02*
X198394580Y-62738095D01*
X198394580Y-62738095D02*
X198299342Y-62690476D01*
X198299342Y-62690476D02*
X197489819Y-62690476D01*
X197585057Y-62261904D02*
X197537438Y-62214285D01*
X197537438Y-62214285D02*
X197489819Y-62119047D01*
X197489819Y-62119047D02*
X197489819Y-61880952D01*
X197489819Y-61880952D02*
X197537438Y-61785714D01*
X197537438Y-61785714D02*
X197585057Y-61738095D01*
X197585057Y-61738095D02*
X197680295Y-61690476D01*
X197680295Y-61690476D02*
X197775533Y-61690476D01*
X197775533Y-61690476D02*
X197918390Y-61738095D01*
X197918390Y-61738095D02*
X198489819Y-62309523D01*
X198489819Y-62309523D02*
X198489819Y-61690476D01*
X243095238Y-56954819D02*
X243095238Y-56288152D01*
X243095238Y-56383390D02*
X243142857Y-56335771D01*
X243142857Y-56335771D02*
X243238095Y-56288152D01*
X243238095Y-56288152D02*
X243380952Y-56288152D01*
X243380952Y-56288152D02*
X243476190Y-56335771D01*
X243476190Y-56335771D02*
X243523809Y-56431009D01*
X243523809Y-56431009D02*
X243523809Y-56954819D01*
X243523809Y-56431009D02*
X243571428Y-56335771D01*
X243571428Y-56335771D02*
X243666666Y-56288152D01*
X243666666Y-56288152D02*
X243809523Y-56288152D01*
X243809523Y-56288152D02*
X243904762Y-56335771D01*
X243904762Y-56335771D02*
X243952381Y-56431009D01*
X243952381Y-56431009D02*
X243952381Y-56954819D01*
X244571428Y-56954819D02*
X244476190Y-56907200D01*
X244476190Y-56907200D02*
X244428571Y-56859580D01*
X244428571Y-56859580D02*
X244380952Y-56764342D01*
X244380952Y-56764342D02*
X244380952Y-56478628D01*
X244380952Y-56478628D02*
X244428571Y-56383390D01*
X244428571Y-56383390D02*
X244476190Y-56335771D01*
X244476190Y-56335771D02*
X244571428Y-56288152D01*
X244571428Y-56288152D02*
X244714285Y-56288152D01*
X244714285Y-56288152D02*
X244809523Y-56335771D01*
X244809523Y-56335771D02*
X244857142Y-56383390D01*
X244857142Y-56383390D02*
X244904761Y-56478628D01*
X244904761Y-56478628D02*
X244904761Y-56764342D01*
X244904761Y-56764342D02*
X244857142Y-56859580D01*
X244857142Y-56859580D02*
X244809523Y-56907200D01*
X244809523Y-56907200D02*
X244714285Y-56954819D01*
X244714285Y-56954819D02*
X244571428Y-56954819D01*
X245190476Y-56288152D02*
X245571428Y-56288152D01*
X245333333Y-55954819D02*
X245333333Y-56811961D01*
X245333333Y-56811961D02*
X245380952Y-56907200D01*
X245380952Y-56907200D02*
X245476190Y-56954819D01*
X245476190Y-56954819D02*
X245571428Y-56954819D01*
X246047619Y-56954819D02*
X245952381Y-56907200D01*
X245952381Y-56907200D02*
X245904762Y-56859580D01*
X245904762Y-56859580D02*
X245857143Y-56764342D01*
X245857143Y-56764342D02*
X245857143Y-56478628D01*
X245857143Y-56478628D02*
X245904762Y-56383390D01*
X245904762Y-56383390D02*
X245952381Y-56335771D01*
X245952381Y-56335771D02*
X246047619Y-56288152D01*
X246047619Y-56288152D02*
X246190476Y-56288152D01*
X246190476Y-56288152D02*
X246285714Y-56335771D01*
X246285714Y-56335771D02*
X246333333Y-56383390D01*
X246333333Y-56383390D02*
X246380952Y-56478628D01*
X246380952Y-56478628D02*
X246380952Y-56764342D01*
X246380952Y-56764342D02*
X246333333Y-56859580D01*
X246333333Y-56859580D02*
X246285714Y-56907200D01*
X246285714Y-56907200D02*
X246190476Y-56954819D01*
X246190476Y-56954819D02*
X246047619Y-56954819D01*
X246809524Y-56954819D02*
X246809524Y-56288152D01*
X246809524Y-56478628D02*
X246857143Y-56383390D01*
X246857143Y-56383390D02*
X246904762Y-56335771D01*
X246904762Y-56335771D02*
X247000000Y-56288152D01*
X247000000Y-56288152D02*
X247095238Y-56288152D01*
X247333334Y-55954819D02*
X247952381Y-55954819D01*
X247952381Y-55954819D02*
X247619048Y-56335771D01*
X247619048Y-56335771D02*
X247761905Y-56335771D01*
X247761905Y-56335771D02*
X247857143Y-56383390D01*
X247857143Y-56383390D02*
X247904762Y-56431009D01*
X247904762Y-56431009D02*
X247952381Y-56526247D01*
X247952381Y-56526247D02*
X247952381Y-56764342D01*
X247952381Y-56764342D02*
X247904762Y-56859580D01*
X247904762Y-56859580D02*
X247857143Y-56907200D01*
X247857143Y-56907200D02*
X247761905Y-56954819D01*
X247761905Y-56954819D02*
X247476191Y-56954819D01*
X247476191Y-56954819D02*
X247380953Y-56907200D01*
X247380953Y-56907200D02*
X247333334Y-56859580D01*
X243235238Y-33644819D02*
X243235238Y-32978152D01*
X243235238Y-33073390D02*
X243282857Y-33025771D01*
X243282857Y-33025771D02*
X243378095Y-32978152D01*
X243378095Y-32978152D02*
X243520952Y-32978152D01*
X243520952Y-32978152D02*
X243616190Y-33025771D01*
X243616190Y-33025771D02*
X243663809Y-33121009D01*
X243663809Y-33121009D02*
X243663809Y-33644819D01*
X243663809Y-33121009D02*
X243711428Y-33025771D01*
X243711428Y-33025771D02*
X243806666Y-32978152D01*
X243806666Y-32978152D02*
X243949523Y-32978152D01*
X243949523Y-32978152D02*
X244044762Y-33025771D01*
X244044762Y-33025771D02*
X244092381Y-33121009D01*
X244092381Y-33121009D02*
X244092381Y-33644819D01*
X244711428Y-33644819D02*
X244616190Y-33597200D01*
X244616190Y-33597200D02*
X244568571Y-33549580D01*
X244568571Y-33549580D02*
X244520952Y-33454342D01*
X244520952Y-33454342D02*
X244520952Y-33168628D01*
X244520952Y-33168628D02*
X244568571Y-33073390D01*
X244568571Y-33073390D02*
X244616190Y-33025771D01*
X244616190Y-33025771D02*
X244711428Y-32978152D01*
X244711428Y-32978152D02*
X244854285Y-32978152D01*
X244854285Y-32978152D02*
X244949523Y-33025771D01*
X244949523Y-33025771D02*
X244997142Y-33073390D01*
X244997142Y-33073390D02*
X245044761Y-33168628D01*
X245044761Y-33168628D02*
X245044761Y-33454342D01*
X245044761Y-33454342D02*
X244997142Y-33549580D01*
X244997142Y-33549580D02*
X244949523Y-33597200D01*
X244949523Y-33597200D02*
X244854285Y-33644819D01*
X244854285Y-33644819D02*
X244711428Y-33644819D01*
X245330476Y-32978152D02*
X245711428Y-32978152D01*
X245473333Y-32644819D02*
X245473333Y-33501961D01*
X245473333Y-33501961D02*
X245520952Y-33597200D01*
X245520952Y-33597200D02*
X245616190Y-33644819D01*
X245616190Y-33644819D02*
X245711428Y-33644819D01*
X246187619Y-33644819D02*
X246092381Y-33597200D01*
X246092381Y-33597200D02*
X246044762Y-33549580D01*
X246044762Y-33549580D02*
X245997143Y-33454342D01*
X245997143Y-33454342D02*
X245997143Y-33168628D01*
X245997143Y-33168628D02*
X246044762Y-33073390D01*
X246044762Y-33073390D02*
X246092381Y-33025771D01*
X246092381Y-33025771D02*
X246187619Y-32978152D01*
X246187619Y-32978152D02*
X246330476Y-32978152D01*
X246330476Y-32978152D02*
X246425714Y-33025771D01*
X246425714Y-33025771D02*
X246473333Y-33073390D01*
X246473333Y-33073390D02*
X246520952Y-33168628D01*
X246520952Y-33168628D02*
X246520952Y-33454342D01*
X246520952Y-33454342D02*
X246473333Y-33549580D01*
X246473333Y-33549580D02*
X246425714Y-33597200D01*
X246425714Y-33597200D02*
X246330476Y-33644819D01*
X246330476Y-33644819D02*
X246187619Y-33644819D01*
X246949524Y-33644819D02*
X246949524Y-32978152D01*
X246949524Y-33168628D02*
X246997143Y-33073390D01*
X246997143Y-33073390D02*
X247044762Y-33025771D01*
X247044762Y-33025771D02*
X247140000Y-32978152D01*
X247140000Y-32978152D02*
X247235238Y-32978152D01*
X248092381Y-33644819D02*
X247520953Y-33644819D01*
X247806667Y-33644819D02*
X247806667Y-32644819D01*
X247806667Y-32644819D02*
X247711429Y-32787676D01*
X247711429Y-32787676D02*
X247616191Y-32882914D01*
X247616191Y-32882914D02*
X247520953Y-32930533D01*
X209952380Y-29454819D02*
X209619047Y-28978628D01*
X209380952Y-29454819D02*
X209380952Y-28454819D01*
X209380952Y-28454819D02*
X209761904Y-28454819D01*
X209761904Y-28454819D02*
X209857142Y-28502438D01*
X209857142Y-28502438D02*
X209904761Y-28550057D01*
X209904761Y-28550057D02*
X209952380Y-28645295D01*
X209952380Y-28645295D02*
X209952380Y-28788152D01*
X209952380Y-28788152D02*
X209904761Y-28883390D01*
X209904761Y-28883390D02*
X209857142Y-28931009D01*
X209857142Y-28931009D02*
X209761904Y-28978628D01*
X209761904Y-28978628D02*
X209380952Y-28978628D01*
X210904761Y-29454819D02*
X210333333Y-29454819D01*
X210619047Y-29454819D02*
X210619047Y-28454819D01*
X210619047Y-28454819D02*
X210523809Y-28597676D01*
X210523809Y-28597676D02*
X210428571Y-28692914D01*
X210428571Y-28692914D02*
X210333333Y-28740533D01*
X211333333Y-29454819D02*
X211333333Y-28454819D01*
X211428571Y-29073866D02*
X211714285Y-29454819D01*
X211714285Y-28788152D02*
X211333333Y-29169104D01*
X212666666Y-29454819D02*
X212095238Y-29454819D01*
X212380952Y-29454819D02*
X212380952Y-28454819D01*
X212380952Y-28454819D02*
X212285714Y-28597676D01*
X212285714Y-28597676D02*
X212190476Y-28692914D01*
X212190476Y-28692914D02*
X212095238Y-28740533D01*
X221288152Y-43761904D02*
X222288152Y-43761904D01*
X221907200Y-43761904D02*
X221954819Y-43857142D01*
X221954819Y-43857142D02*
X221954819Y-44047618D01*
X221954819Y-44047618D02*
X221907200Y-44142856D01*
X221907200Y-44142856D02*
X221859580Y-44190475D01*
X221859580Y-44190475D02*
X221764342Y-44238094D01*
X221764342Y-44238094D02*
X221478628Y-44238094D01*
X221478628Y-44238094D02*
X221383390Y-44190475D01*
X221383390Y-44190475D02*
X221335771Y-44142856D01*
X221335771Y-44142856D02*
X221288152Y-44047618D01*
X221288152Y-44047618D02*
X221288152Y-43857142D01*
X221288152Y-43857142D02*
X221335771Y-43761904D01*
X221954819Y-42761904D02*
X221954819Y-43333332D01*
X221954819Y-43047618D02*
X220954819Y-43047618D01*
X220954819Y-43047618D02*
X221097676Y-43142856D01*
X221097676Y-43142856D02*
X221192914Y-43238094D01*
X221192914Y-43238094D02*
X221240533Y-43333332D01*
%TO.C,vin-1*%
D11*
X236830000Y-65330000D02*
X236830000Y-62670000D01*
X236710000Y-65330000D02*
X236830000Y-65330000D01*
X236710000Y-62670000D02*
X236830000Y-62670000D01*
X234170000Y-64000000D02*
X234170000Y-62670000D01*
X234170000Y-62670000D02*
X235500000Y-62670000D01*
%TO.C,out-1*%
X212830000Y-62790000D02*
X212830000Y-62670000D01*
X212830000Y-62670000D02*
X210170000Y-62670000D01*
X211500000Y-65330000D02*
X210170000Y-65330000D01*
X210170000Y-65330000D02*
X210170000Y-64000000D01*
X210170000Y-62790000D02*
X210170000Y-62670000D01*
%TO.C,bat+1*%
X253330000Y-78710000D02*
X253330000Y-78830000D01*
X253330000Y-76170000D02*
X253330000Y-77500000D01*
X252000000Y-76170000D02*
X253330000Y-76170000D01*
X250670000Y-78830000D02*
X253330000Y-78830000D01*
X250670000Y-78710000D02*
X250670000Y-78830000D01*
%TO.C,vin+1*%
X234670000Y-75170000D02*
X236000000Y-75170000D01*
X234670000Y-76500000D02*
X234670000Y-75170000D01*
X237210000Y-75170000D02*
X237330000Y-75170000D01*
X237210000Y-77830000D02*
X237330000Y-77830000D01*
X237330000Y-77830000D02*
X237330000Y-75170000D01*
%TO.C,out+1*%
X210420000Y-75790000D02*
X210420000Y-75670000D01*
X210420000Y-78330000D02*
X210420000Y-77000000D01*
X211750000Y-78330000D02*
X210420000Y-78330000D01*
X213080000Y-75670000D02*
X210420000Y-75670000D01*
X213080000Y-75790000D02*
X213080000Y-75670000D01*
%TO.C,motor2*%
X236170000Y-54080000D02*
X239110000Y-54080000D01*
X236170000Y-54200000D02*
X239110000Y-54200000D01*
X236170000Y-54320000D02*
X239110000Y-54320000D01*
X237640000Y-48640000D02*
X237640000Y-49660000D01*
X237640000Y-56120000D02*
X237640000Y-55100000D01*
X236170000Y-49660000D02*
X239110000Y-49660000D01*
X239110000Y-55100000D01*
X236170000Y-55100000D01*
X236170000Y-49660000D01*
%TO.C,al*%
X245330000Y-70500000D02*
X245330000Y-67900000D01*
X245330000Y-70500000D02*
X242670000Y-70500000D01*
X245330000Y-67900000D02*
X242670000Y-67900000D01*
X244000000Y-73100000D02*
X242670000Y-73100000D01*
X242670000Y-73100000D02*
X242670000Y-71770000D01*
X242670000Y-70500000D02*
X242670000Y-67900000D01*
%TO.C,motor0*%
X237640000Y-34220000D02*
X237640000Y-35240000D01*
X237640000Y-41700000D02*
X237640000Y-40680000D01*
X239110000Y-36020000D02*
X236170000Y-36020000D01*
X239110000Y-36140000D02*
X236170000Y-36140000D01*
X239110000Y-36260000D02*
X236170000Y-36260000D01*
X236170000Y-35240000D02*
X239110000Y-35240000D01*
X239110000Y-40680000D01*
X236170000Y-40680000D01*
X236170000Y-35240000D01*
%TO.C,bat-1*%
X250670000Y-65210000D02*
X250670000Y-65330000D01*
X250670000Y-65330000D02*
X253330000Y-65330000D01*
X252000000Y-62670000D02*
X253330000Y-62670000D01*
X253330000Y-62670000D02*
X253330000Y-64000000D01*
X253330000Y-65210000D02*
X253330000Y-65330000D01*
%TO.C,U1*%
D12*
X174290000Y-32380000D02*
X196990000Y-32380000D01*
X174290000Y-50380000D02*
X174290000Y-32380000D01*
X174290000Y-50380000D02*
X196990000Y-50380000D01*
X196990000Y-36880000D02*
X196990000Y-32380000D01*
X196990000Y-50380000D02*
X196990000Y-45880000D01*
X198290000Y-36880000D02*
X196990000Y-36880000D01*
X198290000Y-45880000D02*
X196990000Y-45880000D01*
X198290000Y-45880000D02*
X198290000Y-36880000D01*
%TO.C,U2*%
X175850000Y-61650000D02*
X196150000Y-61650000D01*
X175850000Y-77350000D02*
X175850000Y-64442500D01*
X196150000Y-64442500D02*
X196150000Y-77350000D01*
X196150000Y-77350000D02*
X175850000Y-77350000D01*
%TO.C,motor3*%
D11*
X243810000Y-52380000D02*
X243810000Y-49780000D01*
X243810000Y-54980000D02*
X243810000Y-53650000D01*
X245140000Y-54980000D02*
X243810000Y-54980000D01*
X246470000Y-49780000D02*
X243810000Y-49780000D01*
X246470000Y-52380000D02*
X243810000Y-52380000D01*
X246470000Y-52380000D02*
X246470000Y-49780000D01*
%TO.C,motor1*%
X244310000Y-37230000D02*
X244310000Y-39830000D01*
X244310000Y-37230000D02*
X246970000Y-37230000D01*
X244310000Y-39830000D02*
X246970000Y-39830000D01*
X245640000Y-34630000D02*
X246970000Y-34630000D01*
X246970000Y-34630000D02*
X246970000Y-35960000D01*
X246970000Y-37230000D02*
X246970000Y-39830000D01*
%TO.C,R1k1*%
X208560000Y-32510000D02*
X215100000Y-32510000D01*
X208560000Y-32840000D02*
X208560000Y-32510000D01*
X208560000Y-34920000D02*
X208560000Y-35250000D01*
X208560000Y-35250000D02*
X215100000Y-35250000D01*
X215100000Y-32510000D02*
X215100000Y-32840000D01*
X215100000Y-35250000D02*
X215100000Y-34920000D01*
%TO.C,q1*%
D12*
X226410000Y-45260000D02*
X226410000Y-40660000D01*
X222810000Y-42960000D02*
G75*
G02*
X224210000Y-40760000I2605258J-112437D01*
G01*
X224210000Y-45160000D02*
G75*
G02*
X222810000Y-42960000I1205258J2312437D01*
G01*
D13*
X225240000Y-47149000D02*
G75*
G02*
X225040000Y-47149000I-100000J0D01*
G01*
X225040000Y-47149000D02*
G75*
G02*
X225240000Y-47149000I100000J0D01*
G01*
%TD*%
M02*
