%TF.GenerationSoftware,KiCad,Pcbnew,10.0.0*%
%TF.CreationDate,2026-07-27T11:43:12-05:00*%
%TF.ProjectId,pcb_postura,7063625f-706f-4737-9475-72612e6b6963,rev?*%
%TF.SameCoordinates,Original*%
%TF.FileFunction,Soldermask,Bot*%
%TF.FilePolarity,Negative*%
%FSLAX46Y46*%
G04 Gerber Fmt 4.6, Leading zero omitted, Abs format (unit mm)*
G04 Created by KiCad (PCBNEW 10.0.0) date 2026-07-27 11:43:12*
%MOMM*%
%LPD*%
G01*
G04 APERTURE LIST*
G04 Aperture macros list*
%AMRoundRect*
0 Rectangle with rounded corners*
0 $1 Rounding radius*
0 $2 $3 $4 $5 $6 $7 $8 $9 X,Y pos of 4 corners*
0 Add a 4 corners polygon primitive as box body*
4,1,4,$2,$3,$4,$5,$6,$7,$8,$9,$2,$3,0*
0 Add four circle primitives for the rounded corners*
1,1,$1+$1,$2,$3*
1,1,$1+$1,$4,$5*
1,1,$1+$1,$6,$7*
1,1,$1+$1,$8,$9*
0 Add four rect primitives between the rounded corners*
20,1,$1+$1,$2,$3,$4,$5,0*
20,1,$1+$1,$4,$5,$6,$7,0*
20,1,$1+$1,$6,$7,$8,$9,0*
20,1,$1+$1,$8,$9,$2,$3,0*%
G04 Aperture macros list end*
%ADD10R,1.700000X1.700000*%
%ADD11RoundRect,0.249999X0.850001X-0.850001X0.850001X0.850001X-0.850001X0.850001X-0.850001X-0.850001X0*%
%ADD12C,2.200000*%
%ADD13C,1.700000*%
%ADD14RoundRect,0.249999X-0.850001X0.850001X-0.850001X-0.850001X0.850001X-0.850001X0.850001X0.850001X0*%
%ADD15C,1.552000*%
%ADD16C,3.200000*%
%ADD17C,2.109000*%
%ADD18C,1.600000*%
%ADD19RoundRect,0.102000X0.649000X-0.649000X0.649000X0.649000X-0.649000X0.649000X-0.649000X-0.649000X0*%
%ADD20C,1.502000*%
G04 APERTURE END LIST*
D10*
%TO.C,vin-1*%
X235500000Y-64000000D03*
%TD*%
%TO.C,out-1*%
X211500000Y-64000000D03*
%TD*%
%TO.C,bat+1*%
X252000000Y-77500000D03*
%TD*%
%TO.C,vin+1*%
X236000000Y-76500000D03*
%TD*%
%TO.C,out+1*%
X211750000Y-77000000D03*
%TD*%
D11*
%TO.C,motor2*%
X237640000Y-57460000D03*
D12*
X237640000Y-47300000D03*
%TD*%
D10*
%TO.C,al*%
X244000000Y-71770000D03*
D13*
X244000000Y-69230000D03*
%TD*%
D14*
%TO.C,motor0*%
X237640000Y-32880000D03*
D12*
X237640000Y-43040000D03*
%TD*%
D10*
%TO.C,bat-1*%
X252000000Y-64000000D03*
%TD*%
D15*
%TO.C,U1*%
X177760000Y-49000000D03*
X180300000Y-49000000D03*
X182840000Y-49000000D03*
X185380000Y-49000000D03*
X190460000Y-49000000D03*
X187920000Y-49000000D03*
X195540000Y-33760000D03*
X195540000Y-49000000D03*
X193000000Y-33760000D03*
X190460000Y-33760000D03*
X187920000Y-33760000D03*
X185380000Y-33760000D03*
X182840000Y-33760000D03*
X180300000Y-33760000D03*
X177760000Y-33760000D03*
X193000000Y-49000000D03*
%TD*%
D16*
%TO.C,U2*%
X194060000Y-74930000D03*
X177940000Y-74930000D03*
D17*
X179650000Y-63170000D03*
X192350000Y-63170000D03*
X177110000Y-63170000D03*
X189810000Y-63170000D03*
X187270000Y-63170000D03*
X194890000Y-63170000D03*
X182190000Y-63170000D03*
X184730000Y-63170000D03*
%TD*%
D10*
%TO.C,motor3*%
X245140000Y-53650000D03*
D13*
X245140000Y-51110000D03*
%TD*%
D10*
%TO.C,motor1*%
X245640000Y-35960000D03*
D13*
X245640000Y-38500000D03*
%TD*%
D18*
%TO.C,R1k1*%
X208020000Y-33880000D03*
X215640000Y-33880000D03*
%TD*%
D19*
%TO.C,q1*%
X225140000Y-45500000D03*
D20*
X225140000Y-42960000D03*
X225140000Y-40420000D03*
%TD*%
M02*
